<svg width="65" height="43" viewBox="0 0 65 43" fill="none" xmlns="http://www.w3.org/2000/svg">
<path d="M15.918 25.5373V36.1666H53.2759C54.3432 36.1666 55.2085 35.3013 55.2085 34.234C55.2085 33.2957 55.2085 26.4738 55.2085 25.5373L35.5632 22.9604L15.918 25.5373Z" fill="#8B9BA9"/>
<path d="M51.3432 25.022V32.3015H15.918V36.1667H53.2759C54.3432 36.1667 55.2085 35.3014 55.2085 34.2341C55.2085 33.3448 55.2085 26.4096 55.2085 25.5374L51.3432 25.022Z" fill="#6C7A88"/>
<path d="M56.9477 0.0692139H21.716C20.6487 0.0692139 19.7834 0.934506 19.7834 2.00182V8.02447H6.89481C5.08692 8.02447 3.52048 9.27783 3.12378 11.0417L1.66105 17.5463C1.28536 19.2171 1.0957 20.9245 1.0957 22.637V36.1664H19.7834C19.7834 35.8519 19.7834 31.072 19.7834 25.5371H56.9478C58.0151 25.5371 58.8804 24.6718 58.8804 23.6045V2.00182C58.8803 0.934377 58.0151 0.0692139 56.9477 0.0692139Z" fill="#FF7E40"/>
<path d="M64.0343 17.2375H58.8804V13.7695H61.4573C61.9911 13.7695 62.4236 13.3368 62.4236 12.8032C62.4236 12.2695 61.9911 11.8369 61.4573 11.8369H58.8804V8.36886H62.7457C63.2795 8.36886 63.712 7.93621 63.712 7.40255C63.712 6.8689 63.2795 6.43625 62.7457 6.43625H58.8804V2.96812H64.0343C64.568 2.96812 65.0006 2.53548 65.0006 2.00182C65.0006 1.46816 64.568 1.03552 64.0343 1.03552H58.6197C58.2854 0.458441 57.6627 0.0692139 56.9478 0.0692139H55.0152V21.672H19.7834C19.7834 14.8735 19.7834 8.20794 19.7834 8.02434H15.9182V25.5372H13.0192C10.202 25.5372 7.63925 26.641 5.73525 28.4361H1.0957V36.1666H19.7834C19.7834 35.9044 19.7834 31.1025 19.7834 25.5372H31.6952H56.9478C57.6627 25.5372 58.2854 25.148 58.6197 24.5709H62.7457C63.2795 24.5709 63.712 24.1383 63.712 23.6046C63.712 23.071 63.2795 22.6383 62.7457 22.6383H58.8804V19.1702H64.0343C64.568 19.1702 65.0006 18.7376 65.0006 18.2039C65.0006 17.6702 64.568 17.2375 64.0343 17.2375Z" fill="#FF6344"/>
<path d="M0.966303 36.1664H8.03913V32.3011H0.966303C0.432646 32.3011 0 32.7338 0 33.2675V35.2001C0 35.7338 0.432646 36.1664 0.966303 36.1664Z" fill="#8B9BA9"/>
<path d="M15.9174 11.8895H6.66357L4.82617 20.0602H15.9174V11.8895Z" fill="#9DC6FB"/>
<path d="M12.2827 16.195H5.69533L4.82617 20.0602H15.9174V11.8895H12.2827V16.195Z" fill="#80B4FB"/>
<path d="M45.8676 42.9305C49.6034 42.9305 52.6318 39.9021 52.6318 36.1663C52.6318 32.4306 49.6034 29.4022 45.8676 29.4022C42.1319 29.4022 39.1035 32.4306 39.1035 36.1663C39.1035 39.9021 42.1319 42.9305 45.8676 42.9305Z" fill="#4D5967"/>
<path d="M47.2504 29.5449C46.4576 31.0097 46.6793 32.8784 47.9174 34.1164L43.8177 38.2162C42.5797 36.978 40.711 36.7561 39.2461 37.5491C39.8862 40.6177 42.6117 42.9304 45.8676 42.9304C49.5974 42.9304 52.6317 39.8961 52.6317 36.1663C52.6316 32.9104 50.319 30.185 47.2504 29.5449Z" fill="#35404A"/>
<path d="M45.8677 39.0654C47.4687 39.0654 48.7666 37.7675 48.7666 36.1665C48.7666 34.5655 47.4687 33.2676 45.8677 33.2676C44.2666 33.2676 42.9688 34.5655 42.9688 36.1665C42.9688 37.7675 44.2666 39.0654 45.8677 39.0654Z" fill="#FFF9EB"/>
<path d="M13.018 42.9305C16.7538 42.9305 19.7822 39.9021 19.7822 36.1663C19.7822 32.4306 16.7538 29.4022 13.018 29.4022C9.28231 29.4022 6.25391 32.4306 6.25391 36.1663C6.25391 39.9021 9.28231 42.9305 13.018 42.9305Z" fill="#4D5967"/>
<path d="M14.4008 29.5449C13.6079 31.0097 13.8297 32.8784 15.0678 34.1164L10.9681 38.2162C9.7301 36.978 7.8614 36.7561 6.39648 37.5491C7.03656 40.6177 9.76205 42.9304 13.018 42.9304C16.7478 42.9304 19.7821 39.8961 19.7821 36.1663C19.7821 32.9104 17.4695 30.185 14.4008 29.5449Z" fill="#35404A"/>
<path d="M13.0181 39.0654C14.6191 39.0654 15.917 37.7675 15.917 36.1665C15.917 34.5655 14.6191 33.2676 13.0181 33.2676C11.417 33.2676 10.1191 34.5655 10.1191 36.1665C10.1191 37.7675 11.417 39.0654 13.0181 39.0654Z" fill="#FFF9EB"/>
<path d="M29.5611 10.8712V11.8375H30.785C31.3186 11.8375 31.751 12.2699 31.751 12.8037C31.751 13.3374 31.3186 13.77 30.785 13.77H29.5611V15.7023C29.5611 16.2361 29.1285 16.6686 28.595 16.6686C28.0614 16.6686 27.6289 16.2362 27.6289 15.7023V9.90513C27.6289 9.37148 28.0614 8.93909 28.595 8.93909H31.5579C32.0916 8.93909 32.5239 9.37148 32.5239 9.90513C32.5239 10.4389 32.0916 10.8714 31.5579 10.8714H29.5611V10.8712Z" fill="#FFF9EB"/>
<path d="M38.7709 15.0216C39.1463 15.4004 39.1439 16.0122 38.7651 16.3879C38.5765 16.5746 38.3306 16.668 38.0847 16.668C37.836 16.668 37.5875 16.5727 37.3986 16.3821L35.7659 14.7357H35.2506V15.7017C35.2506 16.2355 34.8179 16.668 34.2844 16.668C33.7509 16.668 33.3184 16.2356 33.3184 15.7017V9.90455C33.3184 9.3709 33.7509 8.93851 34.2844 8.93851H36.1687C37.7579 8.93851 39.051 10.2389 39.051 11.837C39.051 12.7799 38.6007 13.6188 37.9051 14.1486L38.7709 15.0216ZM37.1185 11.837C37.1185 11.3041 36.6923 10.8707 36.1687 10.8707H35.2506V12.8031H36.1687C36.6923 12.8031 37.1185 12.3697 37.1185 11.837Z" fill="#FFF9EB"/>
<path d="M45.0396 15.7016C45.0396 16.2354 44.6072 16.6679 44.0735 16.6679H41.1106C40.577 16.6679 40.1445 16.2355 40.1445 15.7016V9.9044C40.1445 9.37074 40.577 8.93835 41.1106 8.93835H44.0735C44.6072 8.93835 45.0396 9.37074 45.0396 9.9044C45.0396 10.4382 44.6072 10.8707 44.0735 10.8707H42.0767V11.837H43.3006C43.8343 11.837 44.2666 12.2694 44.2666 12.8032C44.2666 13.337 43.8343 13.7695 43.3006 13.7695H42.0767V14.7357H44.0735C44.6072 14.7355 45.0396 15.1679 45.0396 15.7016Z" fill="#FFF9EB"/>
<path d="M51.0337 15.7016C51.0337 16.2354 50.6013 16.6679 50.0677 16.6679H47.1047C46.5712 16.6679 46.1387 16.2355 46.1387 15.7016V9.9044C46.1387 9.37074 46.5712 8.93835 47.1047 8.93835H50.0677C50.6013 8.93835 51.0337 9.37074 51.0337 9.9044C51.0337 10.4382 50.6013 10.8707 50.0677 10.8707H48.0709V11.837H49.2947C49.8284 11.837 50.2608 12.2694 50.2608 12.8032C50.2608 13.337 49.8284 13.7695 49.2947 13.7695H48.0709V14.7357H50.0677C50.6013 14.7355 51.0337 15.1679 51.0337 15.7016Z" fill="#FFF9EB"/>
</svg>
