<svg width="49" height="65" viewBox="0 0 49 65" fill="none" xmlns="http://www.w3.org/2000/svg">
<path d="M7.94422 36.5387L0.103516 58.7719L7.99202 58.6951L17.7206 36.5387H7.94422Z" fill="#80AAFF"/>
<path d="M17.7199 36.5387L11.5977 59.9339L17.7636 65.0003L24.4989 45.2937V36.5387H17.7199Z" fill="#80AAFF"/>
<path d="M15.5913 36.5387L7.99219 58.6951L10.0664 58.675L11.5986 59.9339L19.6226 36.5387H15.5913Z" fill="#EAF1FF"/>
<path d="M41.0557 36.5387L48.8964 58.7719L41.0079 58.6951L31.2793 36.5387H41.0557Z" fill="#6680FF"/>
<path d="M31.279 36.5387L37.4012 59.9339L31.2353 65.0003L24.5 45.2937V36.5387H31.279Z" fill="#6680FF"/>
<path d="M33.4083 36.5387L41.0074 58.6951L38.9331 58.675L37.401 59.9339L29.377 36.5387H33.4083Z" fill="#B3CCFF"/>
<path d="M24.4984 1.90625L23.1426 23.0483L24.4984 43.3854C35.9526 43.3854 45.238 34.1 45.238 22.6459C45.238 11.1917 35.9526 1.90625 24.4984 1.90625Z" fill="#EAF1FF"/>
<path d="M3.75977 22.6459C3.75977 34.1 13.0452 43.3854 24.4994 43.3854V1.90625C13.0452 1.90625 3.75977 11.1917 3.75977 22.6459Z" fill="#F9F9F9"/>
<path d="M47.1447 22.6462C47.1447 10.159 36.9855 0 24.4984 0L23.1426 1.35585L24.4984 3.8132C34.8829 3.8132 43.3315 12.2616 43.3315 22.6462C43.3315 33.0307 34.8829 41.4791 24.4984 41.4791L23.1426 43.3857L24.4984 45.2923C36.9855 45.2923 47.1447 35.1333 47.1447 22.6462Z" fill="#FDAE02"/>
<path d="M24.4996 41.4791C14.1151 41.4791 5.66672 33.0307 5.66672 22.6462C5.66672 12.2616 14.1151 3.8132 24.4996 3.8132V0C12.0125 0 1.85352 10.159 1.85352 22.6462C1.85352 35.1333 12.0125 45.2923 24.4996 45.2923V41.4791Z" fill="#FDCB02"/>
<path d="M35.8975 15.0947L29.9611 17.0357L24.5003 12.4162L23.1445 21.6925L24.5003 31.2679H35.8975V15.0947Z" fill="#FD9002"/>
<path d="M24.5007 12.4162L19.0399 17.0357L13.1035 15.0947V31.2679H24.5007V12.4162Z" fill="#FDAE02"/>
</svg>
